<svg width="178" height="70" viewBox="0 0 178 70" fill="none" xmlns="http://www.w3.org/2000/svg">
<path d="M70.3127 22.9359L71.2899 21.0934C71.8762 19.9879 72.5016 18.8824 73.1661 17.8178C73.6742 16.9989 74.2605 16.18 74.8469 15.443C75.5895 14.5422 76.3713 13.6414 77.1921 12.8226C77.3876 12.5769 77.9739 12.495 78.2475 12.454C78.482 12.4131 78.7557 12.3722 78.9902 12.3722C79.2638 12.3312 79.4983 12.3312 79.772 12.3312C79.9283 12.3312 80.0847 12.3722 80.1628 12.5359C80.2019 12.6997 80.1628 12.8635 80.1237 13.0273V13.0682L79.811 13.7643C79.1856 15.1564 78.6384 16.5485 78.1693 18.0226L76.8404 22.117C76.2931 23.7548 75.7068 25.3926 75.0423 26.9485C74.8078 27.5218 74.5732 28.0541 74.2996 28.6273C75.0423 27.6037 75.7459 26.4981 76.4495 25.4336C77.3094 24.0824 78.2084 22.7722 79.1465 21.4619C79.811 20.5202 80.4755 19.5785 81.2182 18.6777C81.7263 18.0226 82.2736 17.3674 82.8208 16.7533C83.2508 16.2619 83.6807 15.7706 84.1498 15.3202C84.7752 14.706 85.4006 14.1328 86.0651 13.5596C86.2996 13.3548 86.5733 13.1501 86.8078 12.9863C86.9251 12.9044 87.1596 12.7407 87.2768 12.7407L88.4886 12.5359L89.7003 12.4131C89.8957 12.4131 90.0912 12.454 90.1694 12.6997C90.2084 12.8225 90.2084 12.9454 90.1694 13.0273C90.0912 13.232 89.9739 13.4367 89.8566 13.6005C89.6612 13.9281 89.4658 14.2147 89.2312 14.5013C88.8013 15.1155 88.3713 15.8115 87.9413 16.4666C87.4332 17.2855 86.9251 18.1454 86.456 19.0052C85.4397 20.8068 84.5016 22.6084 83.6026 24.4918C83.2117 25.3107 82.8208 26.1296 82.469 26.9895C82.1954 27.6446 81.9218 28.2997 81.6873 28.9958C81.4918 29.569 81.2573 30.4698 81.3355 31.084C81.4136 31.5344 81.6482 31.6572 82 31.6572C82.469 31.6572 83.0163 31.3706 83.4462 31.084C83.798 30.8383 84.1107 30.5926 84.4234 30.306C84.8143 29.9785 85.2052 29.61 85.5961 29.2005C85.7133 28.9958 85.7915 28.7501 85.9088 28.5454C86.3387 27.6446 86.8469 26.7848 87.3941 25.9659L89.9348 21.9942L94.5472 21.0934L91.2247 26.1706C90.6775 26.9895 90.1694 27.8493 89.6612 28.7092C89.4267 29.1186 89.1922 29.569 88.9576 30.0194C88.8013 30.347 88.6449 30.7155 88.5277 31.043C88.4886 31.2068 88.2931 31.821 88.4104 31.9438C88.4495 31.9848 88.5667 32.0257 88.6058 32.0257C88.9967 32.0257 89.5439 31.6163 89.8566 31.3706C90.5211 30.8383 91.1466 30.1422 91.7329 29.4871C92.3974 28.6682 93.0619 27.7674 93.6482 26.8667L96.7361 21.9942L101.114 21.0934L99.8632 23.0997L94.3909 32.1076L94 32.7627C94.3518 32.558 94.7426 32.3942 95.0944 32.1895C95.5635 31.9438 96.0326 31.6572 96.4625 31.3296C97.4397 30.6745 98.3778 29.8966 99.2769 29.0777L99.9414 28.4635L99.0423 31.2068L98.9642 31.2478C98.6515 31.4934 98.3387 31.7391 98.0651 31.9438C97.7524 32.1485 97.4397 32.3942 97.1661 32.5989C96.5407 33.0084 95.8371 33.4178 95.1726 33.7863C94.3518 34.2367 93.4918 34.6462 92.6319 35.0556C92.0847 35.9564 91.4983 36.8163 90.8729 37.6761C90.3648 38.3722 89.8176 39.0682 89.2312 39.6824C87.9023 41.0745 86.1824 42.4667 84.3452 42.4667C83.8371 42.4667 83.329 42.3029 83.0553 41.7297C82.7817 41.1564 82.8599 40.4604 83.0553 39.8871C83.2117 39.3958 83.4462 38.9454 83.7589 38.536C84.1107 38.0037 84.5407 37.5533 85.0097 37.1438C85.5961 36.6115 86.2606 36.1202 86.925 35.7108C87.3159 35.4651 87.7068 35.2604 88.1368 35.0147C88.6058 34.769 89.0358 34.5643 89.5049 34.3596L90.5212 32.558C90.3648 32.7218 90.1694 32.8446 90.013 32.9674C89.5439 33.3359 89.0749 33.6635 88.6058 33.9911C87.9023 34.4415 87.0814 34.81 86.2606 34.81C85.557 34.81 85.0097 34.4824 84.7752 33.6635C84.6189 33.1312 84.6579 32.5171 84.7752 31.9438C84.228 32.3942 83.6807 32.8446 83.0944 33.2541C82.3908 33.7454 81.6873 34.1958 80.9055 34.5234C80.3192 34.769 79.6547 34.9737 79.0293 34.9737C77.8957 34.9737 77.2312 34.2777 77.1921 32.8446C77.1531 31.3706 77.5048 29.8556 77.9739 28.5454C78.1303 28.0541 78.3257 27.6037 78.5211 27.1123C78.7947 26.4572 79.1075 25.8021 79.4202 25.147C79.7719 24.369 80.1628 23.632 80.5537 22.895C80.9837 22.117 81.4136 21.3391 81.8827 20.5611C82.3127 19.8241 82.7817 19.0462 83.2508 18.3501C83.2899 18.3092 83.329 18.2273 83.368 18.1863C83.2899 18.2682 83.2117 18.3501 83.1335 18.432C82.3908 19.3328 81.7263 20.2745 81.0228 21.2163C80.0456 22.6084 79.1075 24.0005 78.1303 25.3926C77.4267 26.4163 76.7231 27.4399 76.0195 28.4635C75.4332 29.2824 74.8859 30.1013 74.2605 30.8793C73.3615 32.0667 72.3452 33.2131 71.2508 34.1548C70.899 34.4415 70.5472 34.6871 70.1172 34.81C69.9218 34.8919 69.6872 34.8919 69.4527 34.9328C69.14 34.9737 68.8664 34.9737 68.5537 34.9737C68.3973 34.9737 68.2019 34.9737 68.0846 34.8919C67.9283 34.769 67.9283 34.5234 67.9674 34.3186V34.2777L68.2019 33.7863C68.6319 33.0084 69.0227 32.1895 69.3745 31.3706C69.4918 31.043 69.6482 30.7564 69.7654 30.4289C69.8045 30.306 69.8827 30.1832 69.9218 30.0604C70.0781 29.6919 70.2345 29.2824 70.3908 28.9139L71.4462 26.0478L72.4234 23.2635C72.697 22.4446 73.0097 21.6257 73.3224 20.8478C73.6351 20.1107 73.9869 19.3737 74.3387 18.6367C74.4169 18.4729 74.4951 18.3092 74.5732 18.1454L74.5342 18.1863C74.2605 18.5958 73.9869 19.0462 73.7133 19.4966C73.3224 20.1517 72.9706 20.7659 72.6188 21.421C72.3452 21.9123 72.0716 22.4037 71.798 22.8541L70.9772 24.3281C70.3517 25.4336 69.7654 26.5391 69.1009 27.6037C68.5928 28.4635 68.0065 29.3233 67.4201 30.1013C66.9511 30.7564 66.4429 31.3706 65.8957 31.9438C65.114 32.8037 64.2149 33.5816 63.2768 34.1958C62.5732 34.6462 61.7524 34.9737 60.9315 34.9737C60.5016 34.9737 60.0325 34.8919 59.6807 34.6052C59.3289 34.3596 59.0944 33.9911 58.9771 33.4997C58.8599 33.0084 58.899 32.558 59.0553 32.0667C59.2117 31.5753 59.6025 31.1659 59.9152 30.8383C60.3452 30.4289 60.7752 30.0604 61.2833 29.7737C61.4788 29.6509 61.6742 29.5281 61.8696 29.4052C61.9869 29.3643 62.1042 29.2824 62.2214 29.2415C62.4951 29.2415 62.6905 29.4462 62.7296 29.7737C62.7296 29.9375 62.7296 30.1422 62.6905 30.306C62.6514 30.5926 62.6123 30.8383 62.5341 31.1249C62.456 31.3706 62.3387 31.9848 62.5341 32.2304C62.6123 32.3533 62.8078 32.3533 62.925 32.3533C63.5113 32.3533 64.4104 31.4934 64.8403 31.043C65.3876 30.5108 65.8566 29.8556 66.3257 29.2415C66.9511 28.3816 67.5765 27.4399 68.1237 26.4982C68.9446 25.3926 69.6482 24.1643 70.3127 22.9359ZM88.1368 36.7753C87.355 37.1848 86.6123 37.6761 85.9088 38.2493C85.3615 38.7407 84.697 39.3958 84.4234 40.2147C84.3843 40.3785 84.3452 40.5832 84.3843 40.706C84.4234 40.8289 84.5016 40.8289 84.5798 40.8289C85.127 40.8289 85.8306 40.0919 86.1824 39.6415C86.5733 39.1911 86.9641 38.6588 87.2768 38.1265C87.5895 37.6761 87.8632 37.2257 88.1368 36.7753Z" fill="#194600"/>
<path d="M177.922 61.1785L177.765 61.3422C175.928 61.2603 174.678 61.2194 173.974 61.2194C173.349 61.2194 172.371 61.2603 171.003 61.3422C170.73 60.769 170.182 59.9501 169.283 58.8855L164.358 52.9895C163.264 51.7202 162.13 50.5328 160.879 49.4682V53.6037C160.879 56.3879 160.958 58.1895 161.114 59.0084C161.153 59.3359 161.349 59.5816 161.7 59.6635C161.857 59.7044 162.521 59.7863 163.655 59.8273L163.811 59.9911V61.1785L163.655 61.3422C162.521 61.2603 160.84 61.2194 158.534 61.2194C156.15 61.2194 154.43 61.2603 153.414 61.3422L153.257 61.1785V59.9911L153.414 59.8273C154.547 59.7454 155.212 59.7044 155.368 59.6635C155.681 59.5816 155.876 59.3769 155.915 59.0084C156.072 58.1485 156.15 56.3879 156.15 53.6037V44.3501C156.15 41.5659 156.072 39.7643 155.915 38.9454C155.876 38.6178 155.681 38.3722 155.368 38.2903C155.212 38.2493 154.547 38.2084 153.414 38.1265L153.257 37.9627V36.7753L153.414 36.6115C154.469 36.6934 156.189 36.7344 158.534 36.7344C160.958 36.7344 162.678 36.6934 163.655 36.6115L163.811 36.7753V37.9627L163.655 38.1265C162.521 38.2084 161.857 38.2493 161.7 38.2903C161.388 38.3722 161.192 38.6178 161.114 38.9454C160.958 39.7643 160.879 41.5659 160.879 44.3501V48.6903C162.951 46.684 164.436 45.169 165.335 44.1863L167.72 41.6068C168.541 40.706 169.557 39.5186 170.847 37.9627V36.8163L171.042 36.6525C171.902 36.7344 172.723 36.7753 173.544 36.7753C174.521 36.7753 175.655 36.7344 176.945 36.6525L177.101 36.8163V37.8808L176.945 38.0446C175.655 38.0446 174.717 38.2493 174.091 38.6997C173.192 39.3139 171.472 40.8698 168.971 43.3674L165.609 46.7249C166.078 47.421 166.86 48.4037 167.954 49.7139L171.707 54.2588C174.482 57.6163 176.085 59.4178 176.515 59.6226C176.788 59.7454 177.218 59.8273 177.844 59.8273L178 60.032V61.1785H177.922ZM149.075 61.1785L148.919 61.3422C147.824 61.2603 146.104 61.2194 143.759 61.2194C141.453 61.2194 139.733 61.2603 138.638 61.3422L138.482 61.1785V59.9911L138.638 59.8273C139.772 59.7454 140.436 59.7044 140.593 59.6635C140.905 59.5816 141.101 59.3769 141.179 59.0084C141.335 58.1485 141.414 56.3879 141.414 53.6037V44.3501C141.414 41.5659 141.335 39.7643 141.179 38.9454C141.14 38.6178 140.945 38.3722 140.593 38.2903C140.436 38.2493 139.772 38.2084 138.638 38.1265L138.482 37.9627V36.7753L138.638 36.6115C139.694 36.6934 141.414 36.7344 143.759 36.7344C146.104 36.7344 147.824 36.6934 148.879 36.6115L149.036 36.7753V37.9627L148.879 38.1265C147.746 38.2084 147.081 38.2493 146.925 38.2903C146.612 38.3722 146.417 38.6178 146.339 38.9454C146.182 39.7643 146.104 41.5659 146.104 44.3501V53.6037C146.104 56.3879 146.182 58.1895 146.339 59.0084C146.378 59.3359 146.573 59.5816 146.925 59.6635C147.081 59.7044 147.746 59.7863 148.879 59.8273L149.036 59.9911V61.1785H149.075ZM130.391 48.3627C130.391 45.1281 129.648 42.6714 128.163 40.9107C127.381 40.01 126.404 39.3548 125.231 38.9863C124.137 38.6178 122.573 38.454 120.58 38.454C119.563 38.454 118.547 38.5359 117.609 38.6997C117.492 40.01 117.453 43.1627 117.453 48.158L117.492 55.7737C117.492 57.4525 117.531 58.5989 117.609 59.1722C118.586 59.3359 119.603 59.4178 120.619 59.4178C122.808 59.4178 124.567 59.0903 125.857 58.3942C127.225 57.6572 128.319 56.4289 129.14 54.6682C130 52.9076 130.391 50.7785 130.391 48.3627ZM135.511 47.5438C135.511 51.4745 134.3 54.7501 131.837 57.3706C130.625 58.6399 129.179 59.6225 127.459 60.3186C125.622 61.0556 123.472 61.4241 121.049 61.3832L115.146 61.2603C113.544 61.2194 112.215 61.2603 111.199 61.3832L111.042 61.2194V60.7281L111.12 60.5233C111.941 59.9911 112.371 59.6225 112.449 59.4997C112.567 59.295 112.606 58.517 112.645 57.1659L112.684 53.2352V44.3911C112.684 41.6068 112.606 39.8052 112.449 38.9863C112.41 38.6588 112.215 38.4131 111.902 38.3312C111.746 38.2903 111.081 38.2493 109.948 38.1674L109.791 38.0037V36.8163L109.948 36.6525C111.12 36.7344 112.254 36.7753 113.309 36.7753C115.889 36.7753 118.234 36.7344 120.306 36.6525C121.322 36.6115 122.378 36.6115 123.433 36.6115C126.326 36.6115 128.554 36.9391 130.078 37.6351C131.759 38.3722 133.088 39.5596 134.026 41.1974C135.042 42.8351 135.511 44.9643 135.511 47.5438ZM98.2996 51.8021L94.7426 42.6714L91.3419 51.8021C92.2409 51.843 93.4527 51.843 94.8989 51.843C96.267 51.843 97.4396 51.843 98.2996 51.8021ZM108.853 61.1785L108.697 61.3422C106.234 61.2603 104.749 61.2194 104.241 61.2194C102.208 61.2194 100.293 61.2603 98.5341 61.3422L98.3778 61.1785V60.0729L98.5341 59.8682L99.9804 59.7863C100.606 59.7454 100.879 59.5407 100.879 59.0903C100.879 58.8446 100.723 58.3123 100.41 57.4525L99.0422 53.7674C97.5178 53.7265 95.9543 53.7265 94.3517 53.7265C93.4917 53.7265 92.2018 53.7265 90.482 53.7674L89.7393 55.8966C89.1921 57.5344 88.9185 58.517 88.9185 58.9265C88.9185 59.3769 89.1921 59.6225 89.7002 59.7044C89.9738 59.7454 90.5601 59.7863 91.4201 59.8273L91.5764 59.9911V61.0966L91.4201 61.2603C89.3484 61.1785 88.0585 61.1375 87.4722 61.1375C87.0031 61.1375 85.8696 61.1785 84.0715 61.2603L83.9152 61.0966V59.9501L84.1106 59.7863C85.2442 59.7044 85.9478 59.4997 86.2214 59.0903C86.495 58.6808 87.4722 56.2651 89.153 51.8021L93.4918 40.4194C93.8045 39.5186 94.3126 38.2084 94.9771 36.4068H97.3615L106.195 58.1895C106.547 59.0084 106.86 59.4997 107.133 59.5816C107.485 59.7044 108.032 59.7863 108.697 59.7863L108.853 59.9911V61.1785ZM82.4298 53.1942C82.4298 55.1186 81.9217 56.7974 80.8663 58.2714C79.9673 59.5816 78.7556 60.5233 77.2702 61.1375C75.9021 61.7107 74.2995 61.9974 72.4233 61.9974C70.078 61.9974 67.8109 61.4241 65.5438 60.3186L65.3484 59.9501C65.6611 58.5989 65.8174 56.7155 65.8174 54.2588L65.9738 54.095H67.0292L67.1855 54.2588V54.6682C67.1855 55.3233 67.2637 56.1832 67.381 57.2477C67.7718 57.9848 68.5145 58.6399 69.5308 59.1722C70.6253 59.7454 71.7197 60.032 72.8924 60.032C75.0813 60.032 76.6057 59.2131 77.4657 57.6163C77.8956 56.7974 78.1302 55.9375 78.1302 55.0367C78.1302 53.5627 77.5438 52.4981 76.3321 51.843C75.7458 51.5155 74.8077 51.2698 73.4787 51.0651C70.508 50.5737 68.5536 50.0005 67.6155 49.2635C66.2083 48.158 65.5047 46.4792 65.5047 44.1863C65.5047 41.8115 66.2865 39.8871 67.8109 38.495C69.4135 37.021 71.6806 36.243 74.5732 36.243C77.1921 36.243 79.2637 36.6934 80.8663 37.5533L80.9836 37.9627C80.71 39.3548 80.5536 41.0336 80.5145 42.958L80.3191 43.1218H79.2637L79.1465 42.958C79.1074 41.5659 79.0683 40.6651 78.9901 40.2147C78.6383 39.6824 78.052 39.1911 77.1921 38.8226C76.293 38.4131 75.3158 38.2493 74.3386 38.2493C72.8533 38.2493 71.6806 38.6588 70.8207 39.4777C69.9999 40.2556 69.609 41.2792 69.609 42.5076C69.609 43.8588 70.078 44.8415 70.9771 45.4556C71.5634 45.8651 73.0096 46.2336 75.2377 46.643C75.4722 46.684 76.1367 46.8068 77.1921 47.0115C77.8565 47.1344 78.4429 47.2981 78.9901 47.5029C80.1237 47.9533 80.9445 48.6084 81.5308 49.5092C82.1171 50.4918 82.4298 51.7202 82.4298 53.1942Z" fill="white"/>
<path d="M52.4103 34.8919C53.8175 30.1832 53.3484 24.9423 51.1204 20.6021C50.1432 18.6777 48.8533 16.958 47.2898 15.5249C46.508 14.7879 45.6872 14.1328 44.7881 13.5596C44.1627 13.1501 42.2474 12.495 42.0129 11.9218C41.8956 11.6352 41.9738 10.8163 41.9347 10.4478C41.8565 9.91548 41.7784 9.34225 41.6611 8.80996C41.3875 7.7454 40.9966 6.76272 40.4885 5.82099C39.5113 4.1013 38.1041 2.62729 36.4624 1.60366C32.8663 -0.607361 28.293 -0.525471 24.7751 1.80839C23.0552 2.95484 21.609 4.59264 20.7099 6.51705C20.28 7.37689 20.2018 8.52335 19.7718 9.34225C19.42 9.95642 19.85 9.54697 19.3419 9.71075C19.1073 9.79264 18.7164 9.7517 18.4428 9.79264C17.9347 9.87453 17.3875 9.95642 16.8793 10.1202C13.0096 11.1848 9.88256 14.5013 8.86627 18.5548C8.63175 19.4966 8.51448 20.5202 8.51448 21.5029C8.51448 23.0178 9.06171 24.2871 9.29624 25.7612C9.4135 26.5391 9.53077 26.0068 9.1008 26.4163C8.94445 26.58 8.59266 26.7438 8.39722 26.9076C7.88907 27.2761 7.38093 27.6856 6.91187 28.136C5.93467 28.9958 5.03565 29.9785 4.25389 31.043C1.16594 35.1375 -0.358494 40.3785 0.0714737 45.6194C1.00959 57.3706 11.5243 66.0509 22.6252 64.3722C22.5471 65.0683 22.508 65.7643 22.3907 66.4604C22.2344 67.2793 21.9608 68.0163 21.4135 68.6305C21.0617 69.0399 20.7099 69.0399 20.9054 69.5312C21.4526 70.7186 23.7588 69.2856 24.5406 69.2037C25.3614 69.1218 26.1823 69.2446 26.9249 69.5722C27.9021 69.9816 27.9803 70.1045 28.9966 69.6541C29.7783 69.3265 30.521 69.1218 31.3419 69.1627C32.3191 69.2037 32.9836 69.7769 33.8826 69.9407C34.1953 69.9816 35.0161 69.8997 35.1725 69.4903C35.3679 69.0399 35.0161 68.999 34.6643 68.5895C33.4526 67.2383 33.5308 64.9864 33.3744 63.2257C40.5275 66.3375 48.9315 63.8399 53.5048 57.3297C58.3126 50.6557 57.8044 41.0745 52.4103 34.8919ZM41.8175 14.2147C47.7979 16.958 51.6285 23.5092 51.2377 30.347C50.8077 37.3486 46.039 43.4903 39.5503 45.2919C39.5894 44.9643 39.4331 43.8997 39.5894 43.6541C39.7849 43.3675 40.9184 43.1218 41.2702 42.9171C42.4038 42.3438 43.4591 41.6068 44.3973 40.747C46.1953 39.1092 47.5634 36.9801 48.3842 34.6053C49.9478 29.9785 49.0878 24.6556 46.1171 20.8478C51.0031 28.2178 47.837 38.9454 39.4722 41.5659C39.4331 41.2383 39.0813 40.0509 39.1986 39.7643C39.2767 39.5596 40.2539 39.232 40.4494 39.1092C41.2702 38.6178 42.052 38.0037 42.7165 37.2667C44.2409 35.6289 45.2572 33.4588 45.5699 31.1659C46.078 27.1533 44.3191 22.936 40.9575 20.8478C46.7035 25.3517 45.7653 35.3013 38.7295 37.8399C38.5341 37.2257 38.0259 36.3659 38.3386 35.9564C38.6513 35.547 39.394 35.2604 39.7849 34.8919C40.723 33.9911 41.4266 32.7627 41.7784 31.4934C42.4819 28.7501 41.4266 25.7612 39.1595 24.2052C40.9966 25.884 41.7002 28.6273 40.8012 31.0021C40.4103 32.0667 39.6676 33.0084 38.7295 33.6226C38.2604 33.9501 37.596 34.4005 37.2442 34.1139C36.8533 33.8273 36.5406 32.8037 36.267 32.3942C37.7132 31.821 38.6122 30.1013 37.9868 28.5454C37.9868 29.6509 37.3614 31.6982 35.837 31.3706C35.2116 31.2478 34.7034 30.2651 34.2735 29.7738C33.609 29.0367 32.9054 28.3407 32.1236 27.7265C28.9184 25.0651 24.9705 23.4682 20.8663 23.2226C24.0715 14.706 33.7653 10.5296 41.8175 14.2147ZM21.5699 10.98C21.9998 5.82099 26.4168 1.80839 31.3419 2.095C36.0324 2.38162 39.8631 6.47611 40.0585 11.3895C36.1888 10.3249 32.0064 10.6525 28.3712 12.3312C27.4331 9.66981 30.4038 7.70445 32.5927 8.80996C31.1464 7.62256 28.9966 7.90918 27.7458 9.3013C27.0422 10.0793 26.6513 11.1438 26.6513 12.2493C26.6513 12.8226 26.8467 12.9863 26.4559 13.3958C26.1823 13.6824 25.6741 13.8871 25.3614 14.1328C22.5862 7.99107 29.8565 2.70918 34.8598 6.18949C32.0455 3.69185 27.7067 4.14225 25.2832 6.96744C24.1888 8.19579 23.5634 9.83359 23.407 11.4714C23.3288 12.2903 23.407 13.1092 23.5634 13.9281C23.6415 14.1737 24.0324 14.9926 23.9933 15.2383C23.9152 15.5659 22.938 16.221 22.7034 16.5076C21.8044 14.8289 21.4135 12.9045 21.5699 10.98ZM19.5373 11.8808C19.5373 13.5186 19.8891 15.1564 20.5145 16.6714C20.6708 16.9989 21.0226 17.4903 21.1008 17.8178C21.2181 18.3092 21.2572 18.2273 20.9054 18.7596C20.4363 19.4966 20.0063 20.2336 19.6155 21.0115C19.42 21.4619 19.0682 22.9769 18.7164 23.2635C18.052 23.7549 17.3484 22.7312 17.1529 22.2399C16.5666 20.8068 17.192 19.1281 18.4428 18.3501C17.7002 18.3501 16.762 19.3328 16.4103 19.947C15.7458 21.0525 15.6676 22.4446 16.0976 23.632C15.7848 23.673 14.6122 24.1643 14.3777 24.0415C14.2604 24.0005 14.0259 23.3045 14.0259 23.2226C13.6741 22.2808 13.5568 21.2163 13.6741 20.2336C13.9086 18.1863 15.0813 16.3848 16.762 15.3202C14.8858 16.0982 13.4396 17.736 12.8142 19.7423C12.5015 20.7659 12.3451 21.8304 12.4624 22.895C12.5015 23.1816 12.8923 24.4509 12.8142 24.6147C12.6969 24.8604 11.4852 25.1879 11.2506 25.3108C8.74901 19.0871 13.166 12.0446 19.5373 11.8808ZM30.3647 58.9265C24.5796 63.4305 16.4493 63.758 10.3516 59.7454C4.37115 55.8147 1.08776 48.3627 2.22131 41.0336C3.39395 33.2541 9.33533 26.9076 16.762 25.5974C23.9933 24.2871 31.4591 27.9312 35.1725 34.5643C39.7067 42.6714 37.5569 53.358 30.3647 58.9265ZM39.9412 62.5706C37.166 62.5706 34.3907 61.7517 32.0455 60.1958C32.4363 59.8683 32.9445 59.1312 33.4135 58.9675C33.8435 58.8037 34.7034 59.4588 35.2507 59.6226C36.5406 60.1139 37.9477 60.3596 39.3158 60.4005C41.8565 60.4415 44.4754 59.6635 46.5862 58.1895C51.0031 55.1186 53.153 49.3045 51.824 43.8997C52.6057 48.4856 51.0813 53.1942 47.6025 56.1423C44.0455 59.1312 38.8859 59.6226 34.8989 57.2887C35.1334 57.0021 35.3679 56.4698 35.6415 56.306C36.0324 56.1013 36.3842 56.3879 36.8924 56.5108C37.8696 56.7974 38.8859 56.9612 39.8631 56.9202C41.622 56.8383 43.381 56.2651 44.8272 55.2415C46.3517 54.1769 47.5634 52.621 48.267 50.8604C48.6188 49.9596 48.8533 48.9769 48.9315 47.9942C49.0096 47.0116 48.736 46.0698 48.736 45.0871C49.4787 51.8021 42.951 57.5753 36.8533 54.4226C37.0096 54.1769 37.3223 53.1533 37.5569 53.0305C37.7523 52.9486 38.8859 53.3171 39.1986 53.358C40.4103 53.4399 41.622 53.1123 42.6774 52.4982C44.6318 51.3108 45.7653 48.9769 45.5699 46.6021C45.4136 49.1816 43.6155 51.4336 41.0748 51.8021C40.4494 51.884 39.7849 51.843 39.1595 51.6383C38.7295 51.5155 38.4168 51.4745 38.3777 51.0651C38.3386 50.8194 38.6904 50.0824 38.7686 49.8777C38.964 49.2226 38.964 48.199 39.2767 47.6257C39.5503 47.1753 40.4494 47.0934 40.9966 46.8887C45.6872 45.2919 49.596 41.6478 51.6285 36.9391C55.4201 41.8934 55.9673 48.936 52.9966 54.4635C50.3386 59.4588 45.2963 62.5706 39.9412 62.5706Z" fill="#194600"/>
<path d="M30.4038 54.7501C29.622 55.3643 28.8011 55.8557 27.9412 56.306C27.6285 56.4698 27.3158 56.5927 27.0422 56.7564C26.7295 56.8793 26.4168 57.0021 26.1041 57.1249C25.2051 57.4525 24.2669 57.6982 23.3288 57.8619C22.3907 58.0257 21.4526 58.1076 20.5536 58.1076C18.8337 58.0257 17.1138 57.7801 15.5112 57.1249C13.9086 56.5108 12.4233 55.61 11.0943 54.4635C9.7653 53.358 8.63175 51.9659 7.77181 50.4509C7.30275 49.7139 6.95096 48.895 6.63826 48.0352C6.52099 47.6257 6.32555 47.1753 6.24738 46.7659C6.13011 46.3564 6.01285 45.906 5.93467 45.4557C5.23109 41.8934 5.70015 38.0856 6.91187 34.4415C4.84021 37.6352 3.74575 41.6887 4.2148 45.7423C4.41024 47.7486 5.03565 49.7549 5.97376 51.5564C6.91187 53.358 8.20178 54.9549 9.72621 56.306C11.2506 57.5753 13.0096 58.6399 14.8858 59.2541C16.762 59.8683 18.7164 60.1139 20.6708 59.9501C21.5308 59.8683 22.3907 59.7454 23.2507 59.4997C24.2669 59.2131 25.2832 58.8446 26.2213 58.3533C26.4168 58.2305 26.6122 58.1486 26.8077 58.0257C27.0813 57.8619 27.3549 57.6572 27.6285 57.4934C27.9021 57.2887 28.1757 57.084 28.4494 56.8793C29.1139 56.2242 29.8174 55.5281 30.4038 54.7501Z" fill="#194600"/>
<path d="M12.1497 52.8667C13.5568 54.095 15.1985 54.9958 16.9575 55.4053C18.7164 55.8147 20.5927 55.8556 22.3125 55.4053C22.7425 55.2824 23.1725 55.1596 23.6024 54.9958C23.7979 54.9139 23.9933 54.832 24.1888 54.7501C24.3451 54.6683 24.4624 54.6273 24.6187 54.5454C24.9314 54.3816 25.2051 54.2179 25.4787 54.0541C25.7523 53.8903 26.0259 53.6856 26.2995 53.4808C26.7686 53.1123 27.1985 52.7029 27.6285 52.2525C28.6057 51.1879 29.3875 49.9186 29.8565 48.5675C28.9966 49.7958 27.9803 50.8194 26.8858 51.6383C26.534 51.884 26.2213 52.0887 25.8695 52.2934C25.5959 52.4572 25.2832 52.621 24.9705 52.7438C24.6578 52.8667 24.3842 52.9895 24.0715 53.1123C23.407 53.358 22.7034 53.5218 21.9998 53.6037C18.9901 54.0541 15.863 53.1123 13.5959 51.0651C11.2897 49.0588 9.92165 46.0289 9.84347 42.8352C9.80438 41.1155 10.078 39.3958 10.6252 37.6761C11.0943 36.2021 11.7588 34.7281 12.5796 33.336C11.5243 34.3596 10.5471 35.5879 9.80438 36.9801C8.82718 38.7407 8.20178 40.706 8.08451 42.7942C7.92816 44.6367 8.27995 46.5612 8.94445 48.3218C9.64803 50.0415 10.7816 51.5974 12.1497 52.8667Z" fill="#194600"/>
<path d="M12.0715 43.4903L12.1497 44.5139C12.3451 45.8242 12.8142 47.1753 13.635 48.2399C14.4559 49.3045 15.4721 50.2053 16.6839 50.6966C16.9575 50.8604 17.3093 50.9013 17.622 51.0242C17.9347 51.106 18.2474 51.2289 18.5601 51.2289C18.8728 51.2698 19.1855 51.3108 19.5373 51.3108L20.4754 51.2289C21.4526 51.106 22.4298 50.7785 23.2507 50.2462C23.5634 50.0415 23.8761 49.8368 24.1497 49.5911C24.2279 49.5501 24.2669 49.4682 24.3451 49.4273C24.5796 49.1816 24.8142 48.936 25.0487 48.6493C25.4787 48.0761 25.7914 47.4619 26.0259 46.8068C25.7132 47.1753 25.3614 47.5029 24.9705 47.7895C24.6578 48.0352 24.3451 48.2808 24.0324 48.4446C23.8761 48.5265 23.6806 48.6084 23.5243 48.7312C23.3679 48.8131 23.2507 48.8541 23.0943 48.936C22.2344 49.3045 21.2963 49.4682 20.4363 49.4273C18.4428 49.3864 16.6057 48.4037 15.4721 46.8068L15.0422 46.1927L14.7295 45.5375C14.6122 45.3328 14.534 45.0871 14.4559 44.8415C14.3777 44.5958 14.2995 44.3911 14.2604 44.1045L14.1432 43.3675C14.1041 43.1218 14.1432 42.8761 14.1432 42.5895C14.1432 42.3438 14.1432 42.0572 14.1822 41.8116L14.2604 41.0336C14.2604 40.9517 14.2995 40.8698 14.2995 40.7879C14.6122 39.3139 15.3158 37.8808 16.1757 36.4478C16.4884 35.9564 16.8011 35.4651 17.1529 34.9738C16.6448 35.3013 16.1757 35.6289 15.7067 36.0383C14.5731 36.9801 13.5959 38.1675 12.9314 39.6005C12.8142 39.8871 12.6578 40.2147 12.5796 40.5013C12.4233 41.1155 12.1888 41.7706 12.1497 42.4257C12.1497 42.8352 12.0715 43.1627 12.0715 43.4903Z" fill="#194600"/>
<path d="M16.4884 42.6714C16.3712 43.3265 16.4493 43.9816 16.6839 44.5958C17.0747 45.4966 17.8565 46.1927 18.7164 46.4383C19.3809 46.643 20.1236 46.5612 20.6708 46.2336C20.8272 46.1517 21.0226 46.0289 21.1399 45.8651C20.749 45.8651 20.3972 45.8242 20.0845 45.7423C19.0682 45.4556 18.4037 44.8005 18.0519 43.9816V43.9407C17.622 42.8761 17.7392 41.484 18.8337 40.2556C18.0129 40.2966 17.2311 40.8698 16.8011 41.7297C16.6448 42.0572 16.5275 42.3848 16.4884 42.6714Z" fill="#194600"/>
</svg>
