<svg width="100" height="95" viewBox="0 0 100 95" fill="none" xmlns="http://www.w3.org/2000/svg">
<path d="M46.5342 2.14661C47.1879 0.832884 48.5341 0 50.0054 0C51.4767 0 52.8251 0.832884 53.4766 2.14661L65.9268 27.2512C66.4899 28.3867 67.5815 29.1746 68.8436 29.357L96.6866 33.3819C98.1472 33.5923 99.3553 34.6098 99.8105 36.0029C100.266 37.3961 99.886 38.9287 98.8311 39.9505L78.6855 59.4933C77.7729 60.3777 77.3566 61.6527 77.5702 62.9021L82.325 90.4967C82.5709 91.9435 81.9777 93.4032 80.7825 94.2662C79.5894 95.1248 78.0124 95.2386 76.705 94.5602L51.8003 81.5303C50.6742 80.94 49.3258 80.94 48.1975 81.5303L23.2928 94.5581C21.9898 95.2386 20.4084 95.127 19.2154 94.2662C18.0223 93.4054 17.4269 91.9435 17.675 90.4967L22.4299 62.9021C22.6456 61.6527 22.2271 60.3777 21.3145 59.4933L1.16896 39.9505C0.114 38.9266 -0.265698 37.3961 0.189508 36.0029C0.644714 34.6098 1.855 33.5923 3.31554 33.3819L31.1629 29.357C32.4228 29.1746 33.5144 28.3867 34.0775 27.249L46.5342 2.14661Z" fill="#FFCF40"/>
</svg>
