<svg width="35" height="42" viewBox="0 0 35 42" fill="none" xmlns="http://www.w3.org/2000/svg">
<path d="M22.7665 0H10.478C8.56921 0 7.02186 1.54654 7.02186 3.4543V17.5457H3.45612C1.54736 17.5457 0 19.0922 0 21C0 22.9078 1.54736 24.4543 3.45612 24.4543H7.02186V28.0731H3.45612C1.54736 28.0731 0 29.6196 0 31.5274C0 33.4352 1.54736 34.9817 3.45612 34.9817H7.02186V38.5457C7.02186 40.4535 8.56921 42 10.478 42C12.3867 42 13.9341 40.4535 13.9341 38.5457V34.9817H21.0109C22.9197 34.9817 24.4671 33.4352 24.4671 31.5274C24.4671 29.6196 22.9197 28.0731 21.0109 28.0731H13.9341V24.4543H22.7665C29.512 24.4543 35 18.9692 35 12.2272C35 5.4851 29.5122 0 22.7665 0ZM22.7665 17.5455H13.9341V6.90843H22.7665C25.7006 6.90843 28.0878 9.2942 28.0878 12.2269C28.0878 15.1596 25.7007 17.5455 22.7665 17.5455Z" fill="white"/>
</svg>
